<mxfile host="app.diagrams.net" agent="Mozilla/5.0 (Windows NT 10.0; Win64; x64) AppleWebKit/537.36 (KHTML, like Gecko) Chrome/133.0.0.0 Safari/537.36 Edg/133.0.0.0" version="26.0.16">
  <diagram name="หน้า-1" id="ctI6WPq-Bmgm8OpHPcvw">
    <mxGraphModel dx="872" dy="443" grid="1" gridSize="10" guides="1" tooltips="1" connect="1" arrows="1" fold="1" page="1" pageScale="1" pageWidth="827" pageHeight="1169" math="0" shadow="0">
      <root>
        <mxCell id="0" />
        <mxCell id="1" parent="0" />
        <mxCell id="dQtkvdNgAeB62ctVeO-i-5" value="" style="group" vertex="1" connectable="0" parent="1">
          <mxGeometry x="110" y="70" width="80" height="80" as="geometry" />
        </mxCell>
        <mxCell id="dQtkvdNgAeB62ctVeO-i-3" value="" style="ellipse;whiteSpace=wrap;html=1;strokeWidth=3;fontFamily=Tahoma;fillColor=#ffff88;strokeColor=#36393d;" vertex="1" parent="dQtkvdNgAeB62ctVeO-i-5">
          <mxGeometry width="80" height="80" as="geometry" />
        </mxCell>
        <mxCell id="dQtkvdNgAeB62ctVeO-i-4" value="A" style="text;html=1;align=center;verticalAlign=middle;whiteSpace=wrap;rounded=0;fontSize=20;fontStyle=1" vertex="1" parent="dQtkvdNgAeB62ctVeO-i-5">
          <mxGeometry x="10" y="25" width="60" height="30" as="geometry" />
        </mxCell>
        <mxCell id="dQtkvdNgAeB62ctVeO-i-6" value="" style="group" vertex="1" connectable="0" parent="1">
          <mxGeometry x="140" y="230" width="80" height="80" as="geometry" />
        </mxCell>
        <mxCell id="dQtkvdNgAeB62ctVeO-i-7" value="" style="ellipse;whiteSpace=wrap;html=1;strokeWidth=3;fontFamily=Tahoma;fillColor=#ffff88;strokeColor=#36393d;" vertex="1" parent="dQtkvdNgAeB62ctVeO-i-6">
          <mxGeometry width="80" height="80" as="geometry" />
        </mxCell>
        <mxCell id="dQtkvdNgAeB62ctVeO-i-8" value="B" style="text;html=1;align=center;verticalAlign=middle;whiteSpace=wrap;rounded=0;fontSize=20;fontStyle=1" vertex="1" parent="dQtkvdNgAeB62ctVeO-i-6">
          <mxGeometry x="10" y="25" width="60" height="30" as="geometry" />
        </mxCell>
        <mxCell id="dQtkvdNgAeB62ctVeO-i-9" value="" style="group" vertex="1" connectable="0" parent="1">
          <mxGeometry x="310" y="150" width="80" height="80" as="geometry" />
        </mxCell>
        <mxCell id="dQtkvdNgAeB62ctVeO-i-10" value="" style="ellipse;whiteSpace=wrap;html=1;strokeWidth=3;fontFamily=Tahoma;fillColor=#ffff88;strokeColor=#36393d;" vertex="1" parent="dQtkvdNgAeB62ctVeO-i-9">
          <mxGeometry width="80" height="80" as="geometry" />
        </mxCell>
        <mxCell id="dQtkvdNgAeB62ctVeO-i-11" value="G" style="text;html=1;align=center;verticalAlign=middle;whiteSpace=wrap;rounded=0;fontSize=20;fontStyle=1" vertex="1" parent="dQtkvdNgAeB62ctVeO-i-9">
          <mxGeometry x="10" y="25" width="60" height="30" as="geometry" />
        </mxCell>
        <mxCell id="dQtkvdNgAeB62ctVeO-i-15" value="" style="group" vertex="1" connectable="0" parent="1">
          <mxGeometry x="550" y="350" width="80" height="80" as="geometry" />
        </mxCell>
        <mxCell id="dQtkvdNgAeB62ctVeO-i-16" value="" style="ellipse;whiteSpace=wrap;html=1;strokeWidth=3;fontFamily=Tahoma;fillColor=#ffff88;strokeColor=#36393d;" vertex="1" parent="dQtkvdNgAeB62ctVeO-i-15">
          <mxGeometry width="80" height="80" as="geometry" />
        </mxCell>
        <mxCell id="dQtkvdNgAeB62ctVeO-i-17" value="D" style="text;html=1;align=center;verticalAlign=middle;whiteSpace=wrap;rounded=0;fontSize=20;fontStyle=1" vertex="1" parent="dQtkvdNgAeB62ctVeO-i-15">
          <mxGeometry x="10" y="25" width="60" height="30" as="geometry" />
        </mxCell>
        <mxCell id="dQtkvdNgAeB62ctVeO-i-18" value="" style="group" vertex="1" connectable="0" parent="1">
          <mxGeometry x="300" y="490" width="80" height="80" as="geometry" />
        </mxCell>
        <mxCell id="dQtkvdNgAeB62ctVeO-i-19" value="" style="ellipse;whiteSpace=wrap;html=1;strokeWidth=3;fontFamily=Tahoma;fillColor=#ffff88;strokeColor=#36393d;" vertex="1" parent="dQtkvdNgAeB62ctVeO-i-18">
          <mxGeometry width="80" height="80" as="geometry" />
        </mxCell>
        <mxCell id="dQtkvdNgAeB62ctVeO-i-20" value="E" style="text;html=1;align=center;verticalAlign=middle;whiteSpace=wrap;rounded=0;fontSize=20;fontStyle=1" vertex="1" parent="dQtkvdNgAeB62ctVeO-i-18">
          <mxGeometry x="10" y="25" width="60" height="30" as="geometry" />
        </mxCell>
        <mxCell id="dQtkvdNgAeB62ctVeO-i-21" value="" style="group" vertex="1" connectable="0" parent="1">
          <mxGeometry x="690" y="60" width="80" height="80" as="geometry" />
        </mxCell>
        <mxCell id="dQtkvdNgAeB62ctVeO-i-22" value="" style="ellipse;whiteSpace=wrap;html=1;strokeWidth=3;fontFamily=Tahoma;fillColor=#ffff88;strokeColor=#36393d;" vertex="1" parent="dQtkvdNgAeB62ctVeO-i-21">
          <mxGeometry width="80" height="80" as="geometry" />
        </mxCell>
        <mxCell id="dQtkvdNgAeB62ctVeO-i-23" value="F" style="text;html=1;align=center;verticalAlign=middle;whiteSpace=wrap;rounded=0;fontSize=20;fontStyle=1" vertex="1" parent="dQtkvdNgAeB62ctVeO-i-21">
          <mxGeometry x="10" y="25" width="60" height="30" as="geometry" />
        </mxCell>
        <mxCell id="dQtkvdNgAeB62ctVeO-i-24" value="" style="group" vertex="1" connectable="0" parent="1">
          <mxGeometry x="520" y="190" width="80" height="80" as="geometry" />
        </mxCell>
        <mxCell id="dQtkvdNgAeB62ctVeO-i-25" value="" style="ellipse;whiteSpace=wrap;html=1;strokeWidth=3;fontFamily=Tahoma;fillColor=#ffff88;strokeColor=#36393d;" vertex="1" parent="dQtkvdNgAeB62ctVeO-i-24">
          <mxGeometry width="80" height="80" as="geometry" />
        </mxCell>
        <mxCell id="dQtkvdNgAeB62ctVeO-i-26" value="J" style="text;html=1;align=center;verticalAlign=middle;whiteSpace=wrap;rounded=0;fontSize=20;fontStyle=1" vertex="1" parent="dQtkvdNgAeB62ctVeO-i-24">
          <mxGeometry x="10" y="25" width="60" height="30" as="geometry" />
        </mxCell>
        <mxCell id="dQtkvdNgAeB62ctVeO-i-27" value="" style="group" vertex="1" connectable="0" parent="1">
          <mxGeometry x="10" y="440" width="80" height="80" as="geometry" />
        </mxCell>
        <mxCell id="dQtkvdNgAeB62ctVeO-i-28" value="" style="ellipse;whiteSpace=wrap;html=1;strokeWidth=3;fontFamily=Tahoma;fillColor=#ffff88;strokeColor=#36393d;" vertex="1" parent="dQtkvdNgAeB62ctVeO-i-27">
          <mxGeometry width="80" height="80" as="geometry" />
        </mxCell>
        <mxCell id="dQtkvdNgAeB62ctVeO-i-29" value="C" style="text;html=1;align=center;verticalAlign=middle;whiteSpace=wrap;rounded=0;fontSize=20;fontStyle=1" vertex="1" parent="dQtkvdNgAeB62ctVeO-i-27">
          <mxGeometry x="10" y="25" width="60" height="30" as="geometry" />
        </mxCell>
        <mxCell id="dQtkvdNgAeB62ctVeO-i-30" value="" style="group" vertex="1" connectable="0" parent="1">
          <mxGeometry x="640" y="480" width="80" height="80" as="geometry" />
        </mxCell>
        <mxCell id="dQtkvdNgAeB62ctVeO-i-31" value="" style="ellipse;whiteSpace=wrap;html=1;strokeWidth=3;fontFamily=Tahoma;fillColor=#ffff88;strokeColor=#36393d;" vertex="1" parent="dQtkvdNgAeB62ctVeO-i-30">
          <mxGeometry width="80" height="80" as="geometry" />
        </mxCell>
        <mxCell id="dQtkvdNgAeB62ctVeO-i-32" value="K" style="text;html=1;align=center;verticalAlign=middle;whiteSpace=wrap;rounded=0;fontSize=20;fontStyle=1" vertex="1" parent="dQtkvdNgAeB62ctVeO-i-30">
          <mxGeometry x="10" y="25" width="60" height="30" as="geometry" />
        </mxCell>
        <mxCell id="dQtkvdNgAeB62ctVeO-i-33" value="" style="endArrow=none;html=1;rounded=0;exitX=0.413;exitY=-0.012;exitDx=0;exitDy=0;entryX=0.6;entryY=0.988;entryDx=0;entryDy=0;exitPerimeter=0;strokeWidth=4;entryPerimeter=0;" edge="1" parent="1" source="dQtkvdNgAeB62ctVeO-i-7" target="dQtkvdNgAeB62ctVeO-i-3">
          <mxGeometry width="50" height="50" relative="1" as="geometry">
            <mxPoint x="180" y="200" as="sourcePoint" />
            <mxPoint x="160" y="160" as="targetPoint" />
          </mxGeometry>
        </mxCell>
        <mxCell id="dQtkvdNgAeB62ctVeO-i-34" value="" style="endArrow=none;html=1;rounded=0;exitX=0.038;exitY=0.275;exitDx=0;exitDy=0;entryX=0.988;entryY=0.6;entryDx=0;entryDy=0;exitPerimeter=0;strokeWidth=4;entryPerimeter=0;" edge="1" parent="1" source="dQtkvdNgAeB62ctVeO-i-10" target="dQtkvdNgAeB62ctVeO-i-3">
          <mxGeometry width="50" height="50" relative="1" as="geometry">
            <mxPoint x="275" y="170" as="sourcePoint" />
            <mxPoint x="260" y="90" as="targetPoint" />
          </mxGeometry>
        </mxCell>
        <mxCell id="dQtkvdNgAeB62ctVeO-i-35" value="" style="endArrow=none;html=1;rounded=0;exitX=1;exitY=0.5;exitDx=0;exitDy=0;entryX=0.025;entryY=0.7;entryDx=0;entryDy=0;strokeWidth=4;exitPerimeter=0;entryPerimeter=0;" edge="1" parent="1" source="dQtkvdNgAeB62ctVeO-i-7" target="dQtkvdNgAeB62ctVeO-i-10">
          <mxGeometry width="50" height="50" relative="1" as="geometry">
            <mxPoint x="285" y="330" as="sourcePoint" />
            <mxPoint x="270" y="250" as="targetPoint" />
          </mxGeometry>
        </mxCell>
        <mxCell id="dQtkvdNgAeB62ctVeO-i-36" value="" style="endArrow=none;html=1;rounded=0;exitX=0.738;exitY=0.075;exitDx=0;exitDy=0;entryX=0.213;entryY=0.938;entryDx=0;entryDy=0;strokeWidth=4;exitPerimeter=0;entryPerimeter=0;" edge="1" parent="1" source="dQtkvdNgAeB62ctVeO-i-28" target="dQtkvdNgAeB62ctVeO-i-7">
          <mxGeometry width="50" height="50" relative="1" as="geometry">
            <mxPoint x="190" y="419.5" as="sourcePoint" />
            <mxPoint x="283" y="360.5" as="targetPoint" />
          </mxGeometry>
        </mxCell>
        <mxCell id="dQtkvdNgAeB62ctVeO-i-37" value="" style="endArrow=none;html=1;rounded=0;exitX=0.975;exitY=0.613;exitDx=0;exitDy=0;entryX=0;entryY=0.5;entryDx=0;entryDy=0;strokeWidth=4;exitPerimeter=0;" edge="1" parent="1" source="dQtkvdNgAeB62ctVeO-i-28" target="dQtkvdNgAeB62ctVeO-i-19">
          <mxGeometry width="50" height="50" relative="1" as="geometry">
            <mxPoint x="150" y="560" as="sourcePoint" />
            <mxPoint x="238" y="419" as="targetPoint" />
          </mxGeometry>
        </mxCell>
        <mxCell id="dQtkvdNgAeB62ctVeO-i-38" value="" style="endArrow=none;html=1;rounded=0;entryX=0.5;entryY=0;entryDx=0;entryDy=0;strokeWidth=4;exitX=0.5;exitY=1;exitDx=0;exitDy=0;" edge="1" parent="1" source="dQtkvdNgAeB62ctVeO-i-10" target="dQtkvdNgAeB62ctVeO-i-19">
          <mxGeometry width="50" height="50" relative="1" as="geometry">
            <mxPoint x="202" y="370" as="sourcePoint" />
            <mxPoint x="414" y="411" as="targetPoint" />
          </mxGeometry>
        </mxCell>
        <mxCell id="dQtkvdNgAeB62ctVeO-i-39" value="" style="endArrow=none;html=1;rounded=0;strokeWidth=4;entryX=0.038;entryY=0.338;entryDx=0;entryDy=0;entryPerimeter=0;" edge="1" parent="1" target="dQtkvdNgAeB62ctVeO-i-25">
          <mxGeometry width="50" height="50" relative="1" as="geometry">
            <mxPoint x="390" y="200" as="sourcePoint" />
            <mxPoint x="518" y="223" as="targetPoint" />
          </mxGeometry>
        </mxCell>
        <mxCell id="dQtkvdNgAeB62ctVeO-i-40" value="" style="endArrow=none;html=1;rounded=0;strokeWidth=4;entryX=0.063;entryY=0.725;entryDx=0;entryDy=0;exitX=0.95;exitY=0.3;exitDx=0;exitDy=0;entryPerimeter=0;exitPerimeter=0;" edge="1" parent="1" source="dQtkvdNgAeB62ctVeO-i-25" target="dQtkvdNgAeB62ctVeO-i-22">
          <mxGeometry width="50" height="50" relative="1" as="geometry">
            <mxPoint x="509" y="89" as="sourcePoint" />
            <mxPoint x="640" y="111" as="targetPoint" />
          </mxGeometry>
        </mxCell>
        <mxCell id="dQtkvdNgAeB62ctVeO-i-41" value="" style="endArrow=none;html=1;rounded=0;strokeWidth=4;entryX=0.288;entryY=0.963;entryDx=0;entryDy=0;exitX=0.963;exitY=0.263;exitDx=0;exitDy=0;entryPerimeter=0;exitPerimeter=0;" edge="1" parent="1" source="dQtkvdNgAeB62ctVeO-i-19" target="dQtkvdNgAeB62ctVeO-i-25">
          <mxGeometry width="50" height="50" relative="1" as="geometry">
            <mxPoint x="400" y="443" as="sourcePoint" />
            <mxPoint x="503" y="350" as="targetPoint" />
          </mxGeometry>
        </mxCell>
        <mxCell id="dQtkvdNgAeB62ctVeO-i-42" value="" style="endArrow=none;html=1;rounded=0;strokeWidth=4;entryX=0.663;entryY=0.988;entryDx=0;entryDy=0;exitX=0.388;exitY=0.025;exitDx=0;exitDy=0;entryPerimeter=0;exitPerimeter=0;" edge="1" parent="1" source="dQtkvdNgAeB62ctVeO-i-16" target="dQtkvdNgAeB62ctVeO-i-25">
          <mxGeometry width="50" height="50" relative="1" as="geometry">
            <mxPoint x="384" y="522" as="sourcePoint" />
            <mxPoint x="553" y="277" as="targetPoint" />
          </mxGeometry>
        </mxCell>
        <mxCell id="dQtkvdNgAeB62ctVeO-i-43" value="" style="endArrow=none;html=1;rounded=0;strokeWidth=4;entryX=0.688;entryY=0.975;entryDx=0;entryDy=0;exitX=0.25;exitY=0.088;exitDx=0;exitDy=0;entryPerimeter=0;exitPerimeter=0;" edge="1" parent="1" source="dQtkvdNgAeB62ctVeO-i-31" target="dQtkvdNgAeB62ctVeO-i-16">
          <mxGeometry width="50" height="50" relative="1" as="geometry">
            <mxPoint x="668" y="463" as="sourcePoint" />
            <mxPoint x="660" y="380" as="targetPoint" />
          </mxGeometry>
        </mxCell>
        <mxCell id="dQtkvdNgAeB62ctVeO-i-44" value="" style="endArrow=none;html=1;rounded=0;strokeWidth=4;entryX=0.988;entryY=0.65;entryDx=0;entryDy=0;exitX=0.038;exitY=0.7;exitDx=0;exitDy=0;entryPerimeter=0;exitPerimeter=0;" edge="1" parent="1" source="dQtkvdNgAeB62ctVeO-i-31" target="dQtkvdNgAeB62ctVeO-i-19">
          <mxGeometry width="50" height="50" relative="1" as="geometry">
            <mxPoint x="515" y="549" as="sourcePoint" />
            <mxPoint x="460" y="490" as="targetPoint" />
          </mxGeometry>
        </mxCell>
        <mxCell id="dQtkvdNgAeB62ctVeO-i-45" value="" style="endArrow=none;html=1;rounded=0;strokeWidth=4;entryX=0.388;entryY=1.013;entryDx=0;entryDy=0;exitX=1;exitY=0;exitDx=0;exitDy=0;entryPerimeter=0;" edge="1" parent="1" source="dQtkvdNgAeB62ctVeO-i-16" target="dQtkvdNgAeB62ctVeO-i-22">
          <mxGeometry width="50" height="50" relative="1" as="geometry">
            <mxPoint x="668" y="310" as="sourcePoint" />
            <mxPoint x="660" y="227" as="targetPoint" />
          </mxGeometry>
        </mxCell>
        <mxCell id="dQtkvdNgAeB62ctVeO-i-46" value="" style="endArrow=none;html=1;rounded=0;strokeWidth=4;entryX=0.625;entryY=1;entryDx=0;entryDy=0;exitX=0.938;exitY=0.238;exitDx=0;exitDy=0;entryPerimeter=0;exitPerimeter=0;" edge="1" parent="1" source="dQtkvdNgAeB62ctVeO-i-31" target="dQtkvdNgAeB62ctVeO-i-22">
          <mxGeometry width="50" height="50" relative="1" as="geometry">
            <mxPoint x="678.5" y="371" as="sourcePoint" />
            <mxPoint x="781.5" y="150" as="targetPoint" />
          </mxGeometry>
        </mxCell>
      </root>
    </mxGraphModel>
  </diagram>
</mxfile>
